<?xml version="1.0" encoding="UTF-8" standalone="no"?>
<svg width="41px" height="41px" viewBox="0 0 41 41" version="1.1" xmlns="http://www.w3.org/2000/svg" xmlns:xlink="http://www.w3.org/1999/xlink" xmlns:sketch="http://www.bohemiancoding.com/sketch/ns">
    <!-- Generator: Sketch 3.3.2 (12043) - http://www.bohemiancoding.com/sketch -->
    <title>Oval 1</title>
    <desc>Created with Sketch.</desc>
    <defs></defs>
    <g id="Homepage" stroke="none" stroke-width="1" fill="none" fill-rule="evenodd" sketch:type="MSPage">
        <g id="M---Homepage---V1" sketch:type="MSArtboardGroup" transform="translate(-135.000000, -953.000000)" fill="#FFFFFF" opacity="0.5">
            <g id="Mob-Footer" sketch:type="MSLayerGroup" transform="translate(-2.000000, 783.000000)">
                <g id="Oval-1-+-Oval-1-+-Oval-1" transform="translate(137.000000, 170.500000)" sketch:type="MSShapeGroup">
                    <path d="M20.7950001,40.3863224 C31.9345841,40.3863224 40.9650002,31.3455368 40.9650002,20.1931612 C40.9650002,9.04078568 31.9345841,0 20.7950001,0 C9.65541608,0 0.625,9.04078568 0.625,20.1931612 C0.625,31.3455368 9.65541608,40.3863224 20.7950001,40.3863224 Z M20.7950001,37.9631431 C30.597834,37.9631431 38.5446001,30.0072517 38.5446001,20.1931612 C38.5446001,10.3790707 30.597834,2.42317935 20.7950001,2.42317935 C10.9921662,2.42317935 3.04540001,10.3790707 3.04540001,20.1931612 C3.04540001,30.0072517 10.9921662,37.9631431 20.7950001,37.9631431 Z M22.2589546,29.0781522 L22.2589546,20.1921209 L24.8844635,20.1921209 L25.2324001,17.1299453 L22.2589546,17.1299453 L22.2634153,15.5972969 C22.2634153,14.7986343 22.3446377,14.3706927 23.5724525,14.3706927 L25.2138137,14.3706927 L25.2138137,11.3081703 L22.5879331,11.3081703 C19.4338282,11.3081703 18.323665,12.7936549 18.323665,15.2917729 L18.323665,17.1302921 L16.3576001,17.1302921 L16.3576001,20.1924676 L18.323665,20.1924676 L18.323665,29.0781522 L22.2589546,29.0781522 Z" id="Oval-1"></path>
                </g>
            </g>
        </g>
    </g>
</svg>