<?xml version="1.0" encoding="utf-8"?>
<!-- Generator: Adobe Illustrator 16.0.0, SVG Export Plug-In . SVG Version: 6.00 Build 0)  -->
<!DOCTYPE svg PUBLIC "-//W3C//DTD SVG 1.1//EN" "http://www.w3.org/Graphics/SVG/1.1/DTD/svg11.dtd">
<svg version="1.1" id="Layer_1" xmlns="http://www.w3.org/2000/svg" xmlns:xlink="http://www.w3.org/1999/xlink" x="0px" y="0px"
	 width="347.6px" height="83.7px" viewBox="0 0 347.6 83.7" style="enable-background:new 0 0 347.6 83.7;" xml:space="preserve">
<style type="text/css">
<![CDATA[
	.st0{fill-rule:evenodd;clip-rule:evenodd;fill:#AA8754;}
	.st1{fill-rule:evenodd;clip-rule:evenodd;fill:#4A4A4A;}
]]>
</style>
<path class="st1" d="M217,37c-4.8,0-9.5,0-14.2,0c0-0.4,0-0.7-0.1-1c0.3-0.1,0.6-0.2,0.9-0.2c2-0.4,2.6-0.9,2.6-2.9
	c0.1-3.9,0.1-7.8,0.1-11.7c0-3,0-6-0.1-9c-0.1-2.2-0.5-2.7-2.7-3c-0.8-0.1-1-0.5-0.7-1.2c0.1,0,0.3-0.1,0.4-0.1
	c5.3,0,10.6,0,15.8,0.1c1.3,0,2.6,0.3,3.9,0.7c2.8,0.8,4.6,2.6,4.9,5.7c0.4,3.3-0.5,6-3.4,7.8c-2.3,1.5-4.9,1.7-7.6,1.7
	c-1.1,0-2.1,0-3.4,0c0,1.5,0,2.8,0,4.2c0,1.5,0,3,0,4.4c0,2.3,0.6,2.9,2.8,3.4C217,35.9,217.4,36.2,217,37z M213.4,22.4
	c1.2-0.1,2.2-0.2,3.1-0.3c2.2-0.2,3.5-1.6,3.7-3.6c0.2-1.9,0.2-4-0.2-5.9c-0.5-3-2.7-3.7-5.5-3.2c-0.4,0.1-1.1,0.7-1.1,1.1
	C213.4,14.4,213.4,18.3,213.4,22.4z"/>
<path class="st1" d="M254.2,16.4c0-2.9,0-5.7,0-8.7c9.4,0,18.8,0,28.2,0c0,2.9,0,5.7,0,8.6c-0.4,0-0.8,0-1.3,0
	c-1.1-5.5-4-7.3-9.1-7.1c0,0.4-0.1,0.8-0.1,1.3c0,6.8,0,13.6,0,20.4c0,4.9,0.9,4.5,4.5,5c0.2,0.6,0.3,1.1-0.6,1.1
	c-4.9,0-9.8,0-14.8,0c-0.4,0-0.7,0-1.2,0c0-0.4-0.1-0.7-0.1-1.1c0.6-0.1,1.2-0.1,1.7-0.2c2.1-0.3,2.8-1.1,2.8-3.3c0-3.3,0-6.6,0-9.8
	c0-4,0-8,0-12c0-0.4,0-0.9,0-1.3c-4.6-0.6-8,1.8-8.8,6.1C255.5,16.5,255.5,16.5,254.2,16.4z"/>
<path class="st1" d="M158.5,30.3c0.5,0.4,0.9,0.7,1.4,1.1c-2.3,2.5-4.8,4.6-8,5.6c-4.9,1.5-9.7,1-14.3-1.3c-10.5-5.3-10-20.5-0.6-26
	c4.7-2.8,9.7-3.2,14.9-1.7c1,0.3,2.1,0.7,3.1,1c1.4,0.4,1.9,0.1,2.7-1.1c0.3-0.4,0.8-0.6,1.2-0.9c0.1,0.1,0.2,0.2,0.3,0.3
	c0,3.3,0,6.7,0,10c-0.8,0.3-1.2,0-1.7-0.7c-1.4-1.9-2.7-4-4.4-5.6c-2.1-2.1-4.9-2.7-7.9-2.2c-2.2,0.4-4,1.5-4.8,3.5
	c-0.8,2-1.5,4.1-1.8,6.2c-0.5,3.1-0.4,6.3,0.3,9.4c1.3,6.2,5.7,8.9,11.9,7.3c2.7-0.7,4.8-2.2,6.8-4
	C157.8,30.9,158.1,30.7,158.5,30.3z"/>
<path class="st1" d="M197.1,35.9c0,0.4,0,0.7-0.1,1.1c-5,0-9.9,0-14.9,0c0-0.3-0.1-0.6-0.1-1.1c0.3,0,0.5-0.1,0.7-0.1
	c3.1-0.4,3.5-1,2.3-3.9c-1.4-3.5-1.4-3.5-5.2-3.5c-1.8,0-3.7,0-5.5,0c-0.6,0-1,0.1-1.2,0.8c-0.4,1.3-1,2.6-1.4,3.9
	c-0.5,1.6-0.1,2.2,1.5,2.5c0.6,0.1,1.2,0.2,1.8,0.3c0,0.3,0,0.7,0,1.1c-3.1,0-6.2,0-9.6,0c0.3-0.5,0.4-1.1,0.7-1.2
	c1.8-0.4,2.6-1.8,3.2-3.3c1.6-3.5,3.1-7,4.6-10.5c2-4.7,4-9.3,6.1-14c0.2-0.4,0.7-0.8,1.1-1c0.7-0.3,0.9,0.4,1.1,0.9
	c3.7,8.1,7.4,16.3,11.2,24.4c0.2,0.4,0.5,0.8,0.7,1.3C194.5,35,195.4,35.8,197.1,35.9z M182.7,26.6c-1.5-3.4-2.9-6.6-4.4-10
	c-1.4,3.4-2.8,6.7-4.2,10C177,26.6,179.8,26.6,182.7,26.6z"/>
<path class="st1" d="M316.9,37c-5.3,0-10.2,0-15.1,0c0-0.3-0.1-0.7-0.1-1.1c0.6-0.1,1.2-0.2,1.7-0.2c1.8-0.2,2.3-0.9,1.7-2.6
	c-0.5-1.4-1.1-2.8-1.7-4.2c-0.1-0.3-0.6-0.5-0.9-0.5c-2.9,0-5.8,0-8.6,0c-0.3,0-0.8,0.2-0.9,0.5c-0.6,1.5-1.2,3-1.7,4.6
	c-0.4,1.2,0.1,1.8,1.3,2.1c0.7,0.2,1.3,0.2,2.4,0.4c-0.3,0.4-0.5,1-0.8,1c-2.9,0.1-5.8,0-8.8,0c0-0.4,0-0.7-0.1-1
	c0.1-0.1,0.2-0.2,0.3-0.2c1.4-0.3,2.4-1.2,2.9-2.4c1.9-4.3,3.8-8.5,5.6-12.8c1.8-4.2,3.6-8.4,5.5-12.6c0.2-0.4,0.7-0.9,1-0.8
	c0.4,0,1,0.5,1.1,0.9c3.8,8.3,7.6,16.5,11.4,24.8c0.6,1.4,1.3,2.9,3.2,3.1C316.5,35.9,316.6,36.5,316.9,37z M302.4,26.6
	c-1.5-3.3-2.9-6.5-4.4-10c-1.5,3.5-2.8,6.7-4.2,10C296.6,26.6,299.4,26.6,302.4,26.6z"/>
<path class="st1" d="M153.9,56.3c3,0,5.9,0,9,0c0,0.8,0,1.7,0,2.5c0.1,0.1,0.3,0.2,0.4,0.3c0.2-0.3,0.4-0.7,0.6-1
	c2.4-2.2,5.2-2.7,8.2-1.9c2.4,0.7,3.5,2.4,3.5,5.2c0,3.4,0,6.7,0,10.1c0,0.5,0,1,0.1,1.4c0,1,0.5,1.7,1.6,1.8
	c0.8,0.1,0.9,0.5,0.7,1.2c-0.2,0-0.4,0.1-0.6,0.1c-3.4,0-6.9,0-10.3,0c-0.4-0.7-0.2-1.2,0.6-1.3c0.9-0.2,1.3-0.8,1.3-1.7
	c0-4,0-7.9-0.1-11.9c0-1.9-1.6-2.8-3.5-2.1c-1.7,0.7-2.5,1.9-2.5,3.7c0,3.2,0,6.5,0,9.7c0,1.2,0.3,2.1,1.6,2.4
	c0.3,0.1,0.5,0.6,0.8,1.1c-4.1,0-7.9,0-11.6,0c-0.3-0.8-0.1-1.1,0.7-1.2c1.3-0.2,1.8-1.1,1.8-2.3c0-4.2,0-8.5,0-12.7
	c0-1.3-0.5-2-1.8-2.2c-0.3-0.1-0.6-0.5-0.9-0.8C153.7,56.5,153.8,56.4,153.9,56.3z"/>
<path class="st1" d="M336.7,7.7c0.3,0.9,0,1.2-0.8,1.3c-2.6,0.2-3.2,0.8-3.2,3.5c0,6.9,0,13.8,0,20.8c0,1.6,0.5,2.1,2.1,2.3
	c5.4,0.6,8.9-1.6,11.3-7.2c0.3-0.7,0.4-1.5,1.6-1c-0.2,1.1-0.3,2.3-0.5,3.4c-0.3,1.8-0.6,3.6-0.9,5.4c-0.1,0.6-0.3,0.9-1,0.9
	c-7.5,0-15,0-22.5,0c-0.4-0.8-0.3-1.1,0.6-1.3c2.2-0.4,2.7-1,2.7-3.2c0-6.8,0-13.6,0-20.4c0-2.2-0.5-2.8-2.7-3.2
	c-0.3-0.1-0.5-0.4-0.8-0.6c0.2-0.2,0.4-0.6,0.6-0.6C327.7,7.7,332.2,7.7,336.7,7.7z"/>
<path class="st1" d="M288.7,55.7c7.7,0.1,12.8,6.8,10.4,13.7c-1.3,3.7-3.9,6-7.8,6.7c-3.8,0.7-7.4,0.2-10.4-2.6
	c-3.1-2.9-4-6.5-2.8-10.5c1.1-3.9,3.9-6.1,7.8-7C286.8,55.9,287.7,55.8,288.7,55.7z M284.7,66.6c0.2,1.7,0.3,3.9,0.8,5.9
	c0.4,1.7,1.7,2.6,3.3,2.5c1.6-0.1,2.7-0.9,3-2.7c0.3-1.4,0.5-2.8,0.5-4.3c0.1-2.9,0.2-5.8-0.7-8.6c-0.4-1.3-1.2-2-2.6-2.2
	c-1.3-0.2-2.4,0.2-3.1,1.3c-0.4,0.7-0.7,1.4-0.8,2.2C285,62.6,284.9,64.4,284.7,66.6z"/>
<path class="st1" d="M247.4,7.8c0.3,0.8,0,1.1-0.8,1.2c-2.3,0.2-2.9,1-2.9,3.3c0,6.4,0,12.9,0,19.3c0,3.4,0.3,3.8,3.8,4.3
	c0,0.3,0,0.7,0,1.1c-1.4,0-2.7,0-4.1,0c-3.1,0-6.2,0-9.4,0c-0.8,0-1.1-0.2-0.9-1.1c0.2,0,0.4-0.1,0.6-0.1c2.5-0.4,3-1,3-3.5
	c0-6.6,0-13.3,0-19.9c0-2.5-0.5-3.1-3-3.4c-0.8-0.1-0.9-0.5-0.7-1.2C237.9,7.8,242.6,7.8,247.4,7.8z"/>
<path class="st1" d="M226.1,65.5c-4.1,0-8.2,0-12.4,0c0.4,2.9,0.6,5.7,3.3,7.2c3.2,1.8,5.8,0.1,8.2-2.1c0.2,0.1,0.5,0.2,0.7,0.3
	c0.1,0.1,0.3,0.2,0.5,0.3c-2,2.9-4.5,4.7-8,5.2c-4.3,0.6-8.8-1.5-10.5-5c-3.1-6.2-0.2-13.4,5.9-15.2c2.5-0.7,4.9-0.6,7.3,0.4
	C224.4,58.1,226.4,61.6,226.1,65.5z M220.4,63.9c-0.3-1.8-0.5-3.5-0.9-5.1c-0.2-1-1.1-1.4-2.1-1.5c-1.1-0.1-2.1,0.1-2.7,1.2
	c-1,1.7-1.1,3.5-1.1,5.4C215.8,63.9,217.9,63.9,220.4,63.9z"/>
<path class="st1" d="M199.8,56.3c0,0.7,0,1.2,0,1.9c-1.4,0-2.8,0-4.4,0c0,0.7,0,1.2,0,1.8c0,3.5,0,7,0,10.6c0,1.1-0.1,2.3,1.2,2.7
	c1.3,0.4,2.2-0.4,2.9-1.5c0.1-0.2,0.2-0.3,0.4-0.6c0.3,0.1,0.7,0.3,1,0.4c-1.3,4-6.1,6-9.8,4.1c-1.5-0.8-2.2-2.1-2.2-3.7
	c0-4.1,0-8.2,0-12.4c0-0.4,0-0.9,0-1.4c-0.8,0-1.5,0-2.6,0c0.4-0.8,0.6-1.4,1-1.8c2.1-2.2,4.2-4.4,6.4-6.6c0.4-0.4,0.9-0.5,1.7-1
	c0,2.7,0,5,0,7.4C196.9,56.3,198.3,56.3,199.8,56.3z"/>
<path class="st1" d="M345.7,55.7c0,2.1,0,4.1,0,6c-0.7,0.4-1,0.1-1.3-0.6c-0.9-2.2-2.4-3.8-5-3.9c-1.6-0.1-2.6,0.6-3,1.8
	c-0.3,1,0.1,2.1,1.4,2.9c1.1,0.7,2.3,1.2,3.5,1.8c0.7,0.3,1.4,0.7,2,1c2.7,1.6,3.8,4,3.1,6.8c-0.7,2.8-3.1,4.9-6.1,4.9
	c-1.8,0-3.7-0.5-5.5-1c-0.8-0.2-1.3-0.2-1.8,0.5c-0.2,0.3-0.7,0.4-1.3,0.8c0-2.6,0-4.8,0-7.2c0.8-0.3,1.2,0,1.4,0.9
	c0.9,2.9,3.2,4.6,5.9,4.6c1.7,0,2.7-0.7,3-2.1c0.3-1.3-0.2-2.4-1.6-3.1c-1.4-0.7-2.8-1.3-4.2-2c-2.2-1.1-4.2-2.5-4.5-5.3
	c-0.3-3.3,1.9-6.3,5.2-6.6c1.8-0.1,3.6,0.2,5.4,0.5c0.8,0.1,1.5,0.4,2.1-0.5C344.8,55.7,345.3,55.8,345.7,55.7z"/>
<path class="st1" d="M233.6,56.3c2.4,0,4.8,0,7.4,0c0,1,0,1.9,0,2.5c0.7-0.6,1.5-1.4,2.4-1.9c0.9-0.5,2-0.9,3.1-1.1
	c1.2-0.2,2.3,0.5,2.8,1.7c0.5,1.2,0.5,2.4-0.3,3.5c-0.7,1-1.9,1.3-3,0.7c-0.4-0.2-0.8-0.6-1.2-1c-1.3-1.6-2.4-1.5-3.3,0.5
	c-0.3,0.6-0.4,1.4-0.4,2.1c0,2.9,0,5.8,0,8.6c0,2,0.3,2.2,2.1,2.8c0.3,0.1,0.5,0.5,0.8,0.8c-0.1,0.1-0.1,0.2-0.2,0.3
	c-3.4,0-6.7,0-10.2,0c-0.2-0.6-0.3-1,0.5-1.2c0.9-0.2,1.3-0.9,1.3-1.8c0-4.6,0-9.3,0-13.9c0-0.8-0.5-1.3-1.3-1.5
	c-0.3-0.1-0.6-0.6-0.9-0.8C233.4,56.5,233.5,56.4,233.6,56.3z"/>
<path class="st1" d="M319.2,74.9c0,0.3,0,0.6,0,1c-3.4,0-6.8,0-10.6,0c0.4-0.6,0.6-1,1-1.1c0.9-0.3,1.3-0.9,1.3-1.8
	c0-4.6,0-9.3,0-13.9c0-0.8-0.5-1.3-1.2-1.6c-0.4-0.1-0.6-0.5-0.9-0.8c0.1-0.1,0.1-0.2,0.2-0.3c2.4,0,4.8,0,7.4,0c0,0.9,0,1.8,0,2.8
	c0.1,0,0.2,0.1,0.3,0.1c0.4-0.5,0.9-1,1.3-1.5c1.1-1.2,2.4-2,4.1-1.9c1.3,0.1,2.2,0.7,2.7,1.9c0.5,1.3,0.4,2.5-0.5,3.6
	c-0.8,0.9-2.2,1-3.2,0.2c-0.4-0.3-0.7-0.7-1-1c-1-1.2-1.8-1.2-2.6,0.1c-0.5,0.8-0.7,1.8-0.8,2.7c-0.1,2.8,0,5.5,0,8.3
	C316.6,74.1,316.7,74.3,319.2,74.9z"/>
<path class="st1" d="M257.7,75.9c-0.2-0.6-0.2-1.1,0.6-1.2c1.1-0.2,1.5-1,1.5-2c0-4.4,0-8.8,0-13.2c0-1-0.5-1.6-1.4-1.8
	c-0.7-0.1-1-0.4-0.7-1.2c2.8,0,5.6,0,8.6,0c0,0.4,0.1,0.9,0.1,1.3c0,4.8,0,9.6,0,14.4c0,1.3,0.2,2.3,1.7,2.6
	c0.3,0.1,0.4,0.6,0.7,1.1C264.8,75.9,261.3,75.9,257.7,75.9z"/>
<path class="st1" d="M134.7,75.6c0.3-0.3,0.5-0.8,0.8-0.9c1.1-0.3,1.6-1.1,1.6-2.1c0-4.4,0-8.7,0-13.1c0-1-0.5-1.7-1.5-1.9
	c-0.7-0.1-0.9-0.5-0.6-1.2c2.8,0,5.6,0,8.6,0c0,0.5,0,0.9,0,1.3c0,4.8,0,9.5,0,14.3c0,1.3,0.1,2.5,1.8,2.8c0.2,0,0.4,0.6,0.6,1.1
	c-3.8,0-7.4,0-10.9,0C134.9,75.8,134.8,75.7,134.7,75.6z"/>
<path class="st1" d="M263.1,53.2c-2,0-3.5-1.5-3.5-3.3c0-1.9,1.7-3.4,3.6-3.3c1.9,0,3.5,1.6,3.5,3.4C266.6,51.8,265,53.2,263.1,53.2
	z"/>
<path class="st1" d="M143.9,50c0,1.9-1.5,3.3-3.5,3.3c-2,0-3.5-1.4-3.5-3.3c0-1.9,1.6-3.4,3.6-3.3C142.4,46.6,143.9,48.1,143.9,50z"
	/>
<path class="st1" d="M73.7,0c1.8,0.2,3.6,0.5,5.4,0.7c6.5,0.9,12.7,2.7,18.6,5.7c0.2,0.1,0.5,0.3,0.7,0.4c0.1,0.1,0.2,0.1,0.3,0.3
	c-2.3-0.6-4.5-1.2-6.8-1.6C84.4,4,76.9,4,69.4,4.8c-9.2,1-18.2,3.2-26.6,7.2c-5.7,2.6-10.9,6-15.1,10.7C17.6,33.9,18,49.3,28.4,60.2
	c6.2,6.5,13.8,10.6,22.1,13.7c10.2,3.8,20.8,5.6,31.7,5.4c5.3-0.1,10.6-0.8,15.7-2.3c0.3-0.1,0.6-0.1,0.9-0.2c0,0.1,0.1,0.2,0.1,0.4
	c-3,1.2-5.9,2.5-8.9,3.4c-9.3,3-18.8,3.5-28.4,2.7c-11.3-0.9-22.2-3.4-32.6-7.8c-7.4-3.1-14.3-7.1-20-12.9c-4.8-4.9-8-10.5-8.9-17.4
	c0-0.1-0.1-0.3-0.2-0.4c0-2.1,0-4.2,0-6.2c0.1-0.3,0.2-0.5,0.2-0.8c0.8-2.7,1.4-5.6,2.6-8.2c3.2-6.9,8.6-11.8,14.8-15.8
	c11.9-7.6,25.1-11.4,39-13.2c2.1-0.3,4.2-0.5,6.3-0.7C66.5,0,70.1,0,73.7,0z"/>
<path class="st0" d="M80.1,68.8c-14.5,0-27-11.6-26.9-27c0-15,12-26.9,27-26.8c15,0,27,11.9,26.9,27C107.1,57.3,94.6,68.8,80.1,68.8
	z"/>
</svg>
