<?xml version="1.0" encoding="UTF-8" standalone="no"?>
<svg width="41px" height="41px" viewBox="0 0 41 41" version="1.1" xmlns="http://www.w3.org/2000/svg" xmlns:xlink="http://www.w3.org/1999/xlink" xmlns:sketch="http://www.bohemiancoding.com/sketch/ns">
    <!-- Generator: Sketch 3.3.2 (12043) - http://www.bohemiancoding.com/sketch -->
    <title>Oval 1 Copy</title>
    <desc>Created with Sketch.</desc>
    <defs></defs>
    <g id="Homepage" stroke="none" stroke-width="1" fill="none" fill-rule="evenodd" sketch:type="MSPage">
        <g id="M---Homepage---V1" sketch:type="MSArtboardGroup" transform="translate(-198.000000, -953.000000)" fill="#FFFFFF" opacity="0.5">
            <g id="Mob-Footer" sketch:type="MSLayerGroup" transform="translate(-2.000000, 783.000000)">
                <g id="Oval-1-+-Oval-1-+-Oval-1" transform="translate(137.000000, 170.500000)" sketch:type="MSShapeGroup">
                    <path d="M103.581866,20.1700001 C103.581866,9.03041608 94.55145,0 83.411866,0 C72.272282,0 63.2418659,9.03041608 63.2418659,20.1700001 C63.2418659,31.3095841 72.272282,40.3400002 83.411866,40.3400002 C94.55145,40.3400002 103.581866,31.3095841 103.581866,20.1700001 Z M101.161466,20.1700001 C101.161466,10.3671662 93.2146999,2.42040001 83.411866,2.42040001 C73.6090321,2.42040001 65.6622659,10.3671662 65.6622659,20.1700001 C65.6622659,29.972834 73.6090321,37.9196001 83.411866,37.9196001 C93.2146999,37.9196001 101.161466,29.972834 101.161466,20.1700001 Z M82.408448,24.9151597 C84.2053051,26.2368421 87.4942562,25.4379485 88.9149743,24.2577132 C90.9633461,22.5580839 91.9093586,19.1101675 91.6068612,16.3796712 C91.2692424,13.3244121 88.3394362,10.6301263 84.876011,10.2521794 C79.5488846,9.67054863 74.7043945,12.8514128 74.6681402,17.9106954 C74.650013,20.2937975 75.4396785,21.7931376 77.584351,22.6169259 C79.050387,21.1979279 77.3113103,20.2779554 77.1357032,18.6779049 C76.672327,14.4310949 81.851037,10.3427056 86.4462783,12.9872021 C89.6491252,14.8282785 89.1053097,22.7323468 85.2136298,23.4927669 C84.4375597,23.6455298 83.4666224,23.4078986 83.0825526,23.0548464 C81.2324469,21.3642697 84.6131668,18.3961422 83.5300675,15.9417507 C82.5908528,13.8143852 79.895567,15.5185408 79.6032662,17.3641435 C79.4457862,18.3667211 79.9363532,19.3319567 79.939752,20.2100608 C79.9476827,22.2966895 78.6017392,25.1380805 78.2573227,27.2133934 C78.1247677,28.0213397 78.0046751,29.6768375 78.2018082,30.524389 L79.5749424,30.5515469 C80.5606081,28.9220754 81.2347128,26.4699471 81.7354762,24.3674762 C82.0459043,24.145687 82.1603321,24.7329757 82.408448,24.9151597 L76.3495571,31.3302021 L82.408448,24.9151597 Z" id="Oval-1-Copy"></path>
                </g>
            </g>
        </g>
    </g>
</svg>